<?xml version="1.0" encoding="UTF-8"?>
<svg version="1.1" xmlns="http://www.w3.org/2000/svg" width="100" height="100">
<path stroke="white" stroke-width="2" d="M0 0 C4.18226908 3.15724042 5.56863514 5.77583583 6.30062866 10.95196533 C6.43798935 12.07982452 6.43798935 12.07982452 6.578125 13.23046875 C8.58947693 30.18036133 8.58947693 30.18036133 16.55175781 44.61523438 C22.51370467 48.36160632 28.99885955 49.98484728 35.85302734 51.34375 C39.64120002 52.13371184 43.18142338 53.33397665 46.82543945 54.61669922 C86.08984785 68.26082749 121.66481345 60.20922786 159 45 C160.19826416 44.63656494 161.39652832 44.27312988 162.63110352 43.89868164 C166.32601349 42.26911938 166.32601349 42.26911938 167.54150391 38.34228516 C167.88266969 36.83089785 168.19264079 35.31224146 168.4765625 33.7890625 C168.74356461 32.58133682 168.74356461 32.58133682 169.01596069 31.34921265 C169.58097161 28.77964937 170.10588632 26.20419562 170.625 23.625 C171.15516108 21.05420072 171.6941321 18.48639243 172.25546265 15.92221069 C172.60304989 14.3291141 172.9324858 12.73191416 173.24087524 11.13076782 C174.32475421 6.09310169 175.76827032 3.26141683 180 0 C185.51024571 -2.09926665 191.01241761 0.22112766 196.11520386 2.46696472 C200.11334875 4.32230718 204.05692988 6.28098169 208 8.25 C209.69158018 9.07839028 211.38413531 9.90479252 213.07763672 10.72924805 C215.62629953 11.97013459 218.1742802 13.21218832 220.71871948 14.4617157 C225.81857124 16.96219315 230.94588817 19.37716462 236.1328125 21.69140625 C237.92525391 22.49433105 237.92525391 22.49433105 239.75390625 23.31347656 C241.94260944 24.28672668 244.13513776 25.25143623 246.33203125 26.20605469 C255.36703916 30.26215804 255.36703916 30.26215804 258 35 C258.93971367 38.51202483 259.02858445 41.05619486 258.24316406 44.59301758 C257.9572641 45.91774834 257.9572641 45.91774834 257.66558838 47.26924133 C257.34385651 48.69250984 257.34385651 48.69250984 257.015625 50.14453125 C256.79936462 51.1459465 256.58310425 52.14736176 256.36029053 53.17912292 C255.43962444 57.44148656 254.49665855 61.6988176 253.55371094 65.95629883 C242.87736134 114.41371345 245.95766295 147.75685212 268.03125 192.06591797 C268.4554293 192.9628463 268.4554293 192.9628463 268.88817787 193.8778944 C270.00903217 196.11489747 270.00903217 196.11489747 271.69389915 198.49543476 C279.08308436 210.54227186 277.9561161 223.33159371 277.84228516 237.05786133 C277.84134098 239.79408267 277.85092383 242.53024491 277.85998535 245.26644897 C277.87561662 251.89861058 277.85423651 258.53014787 277.81999679 265.16221926 C277.78150205 272.89555615 277.78041091 280.62876764 277.78072636 288.36218389 C277.78004111 302.16273086 277.74601533 315.96299167 277.69287109 329.76342773 C277.64139699 343.13846757 277.61310249 356.51328746 277.61083984 369.88842773 C277.61069699 370.71303274 277.61055413 371.53763775 277.61040695 372.38723079 C277.61026833 373.21044791 277.61012972 374.03366503 277.6099869 374.88182813 C277.6096965 376.53953191 277.60939401 378.19723569 277.60907936 379.85493946 C277.6088468 381.08138366 277.6088468 381.08138366 277.60860953 382.33260452 C277.60516695 395.10610532 277.57962497 407.87957325 277.55222327 420.65304158 C277.54263142 425.27344182 277.5364925 429.89383183 277.5329227 434.51424048 C277.5272478 441.84058759 277.51209184 449.16677321 277.47709651 456.49304412 C277.46130662 459.83805283 277.45168488 463.18275836 277.45182419 466.52782631 C277.45105554 470.15876307 277.43182216 473.78915079 277.40786743 477.41999817 C277.41183112 478.46980749 277.4157948 479.51961682 277.4198786 480.60123855 C277.32824331 489.33864542 275.91572103 496.69801872 269.875 503.3125 C269.17117188 504.11300781 268.46734375 504.91351563 267.7421875 505.73828125 C260.15514877 511.99596704 252.61966881 512.58306155 243.05151367 512.51757812 C241.78200363 512.5245874 240.51249359 512.53159668 239.20451355 512.53881836 C235.74551556 512.5569399 232.28699876 512.55002964 228.82799315 512.53730202 C225.19011079 512.5271093 221.55226708 512.53658559 217.91438293 512.54284668 C211.80409425 512.55010775 205.69399943 512.540579 199.58374023 512.52148438 C192.54735547 512.4997477 185.511435 512.50674959 178.4750616 512.52879 C172.4084607 512.54702326 166.34199849 512.549463 160.275379 512.53903532 C156.66335385 512.53283987 153.05154583 512.53185388 149.43953514 512.54518127 C145.4049737 512.55902958 141.37119424 512.53976187 137.33666992 512.51757812 C136.15965515 512.52567505 134.98264038 512.53377197 133.7699585 512.54211426 C118.2904528 512.38540582 106.36165436 506.3829023 95.06640625 496.18359375 C93.16077404 494.16989166 92.05407414 492.54014588 91 490 C90.34 490 89.68 490 89 490 C88.731875 490.59039062 88.46375 491.18078125 88.1875 491.7890625 C82.69405395 502.01699166 70.47508941 507.41641678 60 511 C56.8016254 511.95588521 53.90916157 512.13448134 50.57504272 512.15390015 C49.47332733 512.16250061 48.37161194 512.17110107 47.23651123 512.17996216 C46.0323053 512.18422211 44.82809937 512.18848206 43.58740234 512.19287109 C42.31540985 512.20104858 41.04341736 512.20922607 39.73287964 512.21765137 C35.51725366 512.24381427 31.30161805 512.25917567 27.0859375 512.2734375 C25.63124206 512.27879999 24.17654668 512.28417751 22.72185135 512.28956985 C16.66711219 512.31119232 10.61237563 512.32992591 4.55760765 512.34119225 C-4.10043254 512.35741193 -12.75802263 512.39054821 -21.4158932 512.44759309 C-27.51374415 512.48639105 -33.61147523 512.50583667 -39.70944631 512.51111281 C-43.34620212 512.51475354 -46.98247724 512.52663655 -50.61909866 512.55921555 C-54.68334615 512.59510403 -58.74663577 512.59090048 -62.81103516 512.58349609 C-64.0030957 512.59990143 -65.19515625 512.61630676 -66.42333984 512.63320923 C-75.26855238 512.56743373 -81.73578406 510.48254893 -88.62109375 504.859375 C-89.22050781 504.16328125 -89.81992188 503.4671875 -90.4375 502.75 C-91.05496094 502.06421875 -91.67242187 501.3784375 -92.30859375 500.671875 C-96.90019662 493.41862705 -97.45314854 485.9698986 -97.48188782 477.56803894 C-97.49715128 476.44643838 -97.51241474 475.32483781 -97.52814072 474.16924936 C-97.57507765 470.42558731 -97.60082683 466.68209807 -97.6262207 462.93823242 C-97.64755575 460.93292766 -97.66891092 458.92762275 -97.69174168 456.92233445 C-97.79137101 448.16400121 -97.85624822 439.40556503 -97.91134122 430.64685175 C-97.92575871 428.35904574 -97.94070493 426.07124369 -97.9557569 423.78344178 C-98.04877583 409.52064942 -98.12868258 395.25781782 -98.17901325 380.99480724 C-98.19085842 377.69551209 -98.20286777 374.39621761 -98.21508789 371.09692383 C-98.21962552 369.86715058 -98.21962552 369.86715058 -98.22425481 368.61253343 C-98.27503644 355.3963667 -98.39809509 342.18190898 -98.55115686 328.96657225 C-98.70767589 315.33817085 -98.7939961 301.71063851 -98.81560391 288.08134729 C-98.82945166 280.45327962 -98.87266861 272.82802536 -98.99483681 265.20085716 C-99.91398256 205.83226756 -99.91398256 205.83226756 -82.17958409 178.99618238 C-72.96755352 165.05093716 -66.65004099 144.7385556 -66 128 C-65.9484375 126.91460937 -65.896875 125.82921875 -65.84375 124.7109375 C-65.18122882 97.60277909 -72.05918577 69.8548154 -78.46069336 43.64111328 C-79.23618029 39.84336876 -79.30213566 37.67661833 -78 34 C-74.00445288 30.24735005 -69.95480135 27.73356572 -64.9609375 25.46875 C-64.29023224 25.15550781 -63.61952698 24.84226562 -62.92849731 24.51953125 C-60.74811483 23.5038537 -58.56200299 22.50133307 -56.375 21.5 C-54.85453674 20.79813438 -53.33435748 20.09565323 -51.81445312 19.39257812 C-49.49181057 18.31838125 -47.16882463 17.24500218 -44.84405518 16.17541504 C-39.82712391 13.86327672 -34.84706477 11.48536041 -29.8828125 9.0625 C-28.62093776 8.45308751 -27.35873829 7.84434689 -26.09619141 7.23632812 C-23.76076842 6.10872946 -21.43184243 4.96753707 -19.11083984 3.81054688 C-13.10127711 0.94265864 -6.71917784 -2.04802888 0 0 Z M192 25 C191.77751083 25.96147949 191.55502167 26.92295898 191.32579041 27.91357422 C189.20124265 37.09063469 187.06937874 46.26597049 184.93080807 55.43977356 C183.83225958 60.15321188 182.73606853 64.86716959 181.64575195 69.58251953 C161.69836163 155.81506549 161.69836163 155.81506549 137 185 C136.28328125 185.87785156 135.5665625 186.75570312 134.828125 187.66015625 C125.21348367 198.96247398 113.93332509 205.3555583 100 210 C100 253.56 100 297.12 100 342 C151.48 342 202.96 342 256 342 C256.268125 321.74625 256.53625 301.4925 256.8125 280.625 C256.99002808 271.11292725 256.99002808 271.11292725 257.17114258 261.40869141 C257.21468055 255.61056472 257.21468055 255.61056472 257.24076843 249.81234741 C257.26043691 247.27485304 257.30553309 244.73746242 257.3724823 242.20077515 C257.85651501 222.85519925 254.42559328 209.64763546 244.63760948 192.95051193 C219.45531728 147.57910047 224.02257477 103.21166225 234.29150391 54.49731445 C234.93127517 51.33924302 235.49290387 48.18173767 236 45 C231.02150019 42.62970472 226.04097684 40.26373305 221.05859375 37.90161133 C219.366635 37.09873816 217.67521887 36.2947204 215.984375 35.48950195 C213.54311268 34.32716745 211.09987873 33.16906843 208.65625 32.01171875 C207.91008423 31.65534836 207.16391846 31.29897797 206.3951416 30.93180847 C205.67499878 30.59168228 204.95485596 30.25155609 204.21289062 29.90112305 C203.59111938 29.60578171 202.96934814 29.31044037 202.32873535 29.00614929 C198.93322464 27.53909092 195.46938312 26.2823746 192 25 Z M-19.7109375 28.10546875 C-20.39370758 28.42655106 -21.07647766 28.74763336 -21.77993774 29.07844543 C-23.97914578 30.11299431 -26.17713031 31.15011127 -28.375 32.1875 C-31.23651183 33.53615022 -34.09854964 34.88367888 -36.9609375 36.23046875 C-37.99864288 36.71892776 -37.99864288 36.71892776 -39.05731201 37.21725464 C-44.68263455 39.86084655 -50.33105601 42.45117836 -56 45 C-55.87471924 45.60021973 -55.74943848 46.20043945 -55.62036133 46.81884766 C-52.92784663 59.79908857 -50.44506249 72.80221954 -48.25 85.875 C-48.03964111 87.11459473 -47.82928223 88.35418945 -47.61254883 89.63134766 C-41.31856104 127.70418173 -48.38649262 158.94747308 -64.875 193.59375 C-65.33479752 194.57746078 -65.79459503 195.56117157 -66.26832581 196.57469177 C-68 200 -68 200 -70.02770996 203.10168457 C-77.58608622 215.0542415 -77.0697772 227.3868626 -76.84460449 241.14501953 C-76.7839093 244.95794033 -76.76371068 248.76867567 -76.75683594 252.58203125 C-76.71516932 261.72166016 -76.60347922 270.86086192 -76.5 280 C-76.335 300.46 -76.17 320.92 -76 342 C-24.52 342 26.96 342 80 342 C80 298.44 80 254.88 80 210 C75.71 208.35 71.42 206.7 67 205 C37.34096663 189.62124196 22.04350404 155.40427195 12.24023438 125.10253906 C7.3719116 109.29741408 3.76612935 93.09351613 0 77 C-0.26846741 75.85384216 -0.53693481 74.70768433 -0.8135376 73.52679443 C-4.59520365 57.36327934 -8.31950112 41.18683554 -12 25 C-14.53981116 25 -17.40579758 27.01477702 -19.7109375 28.10546875 Z M19 68 C27.06041219 105.38076319 35.76826089 142.43703582 60 173 C60.64195312 173.85335937 61.28390625 174.70671875 61.9453125 175.5859375 C68.28614864 183.03581723 77.75963813 188.9122461 87.49609375 190.375 C97.51034185 190.87493126 105.60109327 186.38239026 113 180 C115.60414714 177.64587234 115.60414714 177.64587234 118 175 C118.52078125 174.46117187 119.0415625 173.92234375 119.578125 173.3671875 C145.24144207 145.73866146 153.71371796 103.57750906 161 68 C155.9349981 69.48954662 150.88910243 71.01802382 145.87890625 72.68359375 C104.2568401 86.47087889 67.25369062 84.97221756 26.15161133 69.82885742 C22.66892259 68.46721151 22.66892259 68.46721151 19 68 Z M-76 363 C-76 375.21 -76 387.42 -76 400 C-24.52 400 26.96 400 80 400 C80 387.79 80 375.58 80 363 C28.52 363 -22.96 363 -76 363 Z M100 363 C100 375.21 100 387.42 100 400 C151.48 400 202.96 400 256 400 C256 387.79 256 375.58 256 363 C204.52 363 153.04 363 100 363 Z M-76 421 C-81.29999814 458.56070108 -81.29999814 458.56070108 -72 491 C-69.14640214 492.17289428 -66.36805803 492.12741294 -63.30308533 492.13371277 C-61.89248337 492.14011024 -61.89248337 492.14011024 -60.4533844 492.14663696 C-58.91592812 492.14595718 -58.91592812 492.14595718 -57.34741211 492.14526367 C-55.71980957 492.15030159 -55.71980957 492.15030159 -54.05932617 492.15544128 C-50.46532043 492.16495389 -46.87136131 492.16689488 -43.27734375 492.16796875 C-40.77592449 492.17118226 -38.27450541 492.17454641 -35.77308655 492.17805481 C-30.52328184 492.18404766 -25.27348894 492.18593749 -20.02368164 492.18530273 C-14.64539625 492.18476978 -9.26718289 492.19178234 -3.88891602 492.20581055 C2.61258309 492.22252493 9.1140176 492.22935679 15.61553764 492.22869301 C18.08772586 492.22986928 20.55991481 492.23427113 23.03209114 492.24202538 C26.50201846 492.25188589 29.97171896 492.24892277 33.44165039 492.24291992 C34.95785225 492.25134918 34.95785225 492.25134918 36.50468445 492.25994873 C48.80090277 492.20623121 60.45433038 490.38240048 69.8125 481.8125 C84.71824426 465.53570851 80 441.04826438 80 421 C28.52 421 -22.96 421 -76 421 Z M100 421 C97.64087787 453.29198644 97.64087787 453.29198644 110.1875 481.8125 C120.41856951 491.18177316 133.2421468 492.31214249 146.54248047 492.25878906 C147.63820877 492.2622937 148.73393707 492.26579834 149.86286926 492.26940918 C153.44770838 492.27813917 157.03234675 492.2724108 160.6171875 492.265625 C163.12297605 492.26697358 165.62876434 492.26891571 168.134552 492.27142334 C174.03563996 492.27473736 179.93665597 492.2677839 185.83773339 492.2571218 C191.2110566 492.24851987 196.58428519 492.25462686 201.95760238 492.264395 C207.79087414 492.27457228 213.62409482 492.27348667 219.45737076 492.26763153 C221.93172347 492.26629772 224.40607963 492.26793335 226.88042831 492.27259064 C230.3316743 492.27766466 233.78266013 492.2699346 237.23388672 492.25878906 C238.2552623 492.26283752 239.27663788 492.26688599 240.32896423 492.27105713 C246.94105132 492.34320776 246.94105132 492.34320776 253 490 C266.81303732 471.58261691 256 444.02172887 256 421 C204.52 421 153.04 421 100 421 Z " fill="white" transform="translate(166,0)"/>
<path stroke-width="2" d="M0 0 C0.69495575 -0.00525696 1.3899115 -0.01051392 2.10592651 -0.01593018 C4.39246405 -0.0290837 6.6782997 -0.02040912 8.96484375 -0.01025391 C10.55997857 -0.01227599 12.15511248 -0.01518855 13.75024414 -0.01895142 C17.08911971 -0.02336845 20.42775408 -0.01696385 23.76660156 -0.00292969 C28.04054464 0.01416202 32.3139225 0.00431748 36.58784485 -0.01364708 C39.88045489 -0.02450179 43.17293153 -0.02103087 46.46554565 -0.0132637 C48.0411689 -0.01126635 49.61680436 -0.01370462 51.19241333 -0.02070236 C53.3968298 -0.02834488 55.60033843 -0.01667469 57.8046875 0 C59.05757568 0.00238678 60.31046387 0.00477356 61.60131836 0.00723267 C65.17984096 0.42020783 67.03766423 1.24890108 69.90234375 3.38818359 C72.06467256 6.1470169 72.84177138 7.90360463 73.27734375 11.38818359 C72.84609145 14.83820202 72.0308286 16.65156022 69.90234375 19.38818359 C66.31728771 21.81031319 62.97705336 21.65365156 58.73461914 21.67871094 C57.66314384 21.68878677 57.66314384 21.68878677 56.57002258 21.69906616 C54.21327727 21.71803393 51.85681685 21.72196951 49.5 21.72412109 C47.85859562 21.73054924 46.21719238 21.73727761 44.57579041 21.74429321 C41.13684431 21.75626244 37.69799865 21.75997434 34.2590332 21.75878906 C29.85607559 21.75858574 25.4537625 21.78590227 21.05095768 21.82033348 C17.66142324 21.84258743 14.27204439 21.8466271 10.88244438 21.84556961 C9.25935072 21.84792729 7.63625288 21.85676027 6.01323128 21.87223434 C3.74151756 21.89186748 1.47119988 21.88606848 -0.80053711 21.87402344 C-2.73768837 21.87829849 -2.73768837 21.87829849 -4.713974 21.88265991 C-8.6895397 21.30168837 -10.30648895 20.23025515 -13.09765625 17.38818359 C-15.02124074 13.14026785 -15.31357751 11.15025862 -14.03515625 6.63818359 C-10.51047813 0.7258203 -6.63699736 0.01264363 0 0 Z " fill="white" transform="translate(315.09765625,259.61181640625)"/>
<path stroke-width="2" d="M0 0 C1.03958611 -0.0098568 1.03958611 -0.0098568 2.10017395 -0.01991272 C4.39254876 -0.0396145 6.68485815 -0.05130119 8.97729492 -0.0612793 C10.15345147 -0.06739259 10.15345147 -0.06739259 11.35336876 -0.07362938 C15.50348013 -0.09447665 19.65355856 -0.10878425 23.80371094 -0.11816406 C28.08437825 -0.12922679 32.36452551 -0.16362848 36.64500904 -0.20333576 C39.94191945 -0.2295123 43.2387061 -0.23785678 46.53571129 -0.24144554 C48.11333415 -0.24630872 49.69095159 -0.25791514 51.26847267 -0.27648354 C53.48017951 -0.30089891 55.69054269 -0.2999065 57.90234375 -0.29296875 C59.15904373 -0.29883499 60.41574371 -0.30470123 61.71052551 -0.31074524 C65.78795877 0.26826735 67.95774522 1.61749379 71.14526367 4.17700195 C72.87396146 7.63439753 72.63493263 11.39675763 72.14526367 15.17700195 C70.35132699 18.04730064 69.16263091 19.66831833 66.14526367 21.17700195 C63.83358694 21.28463984 61.51873901 21.32593396 59.20458984 21.33813477 C58.49056503 21.34309967 57.77654022 21.34806458 57.0408783 21.35317993 C54.67331994 21.36781173 52.30582861 21.37460573 49.93823242 21.38012695 C48.29397072 21.38587822 46.64970904 21.39163596 45.00544739 21.3973999 C41.55457242 21.40791323 38.10372077 21.4137535 34.65283203 21.41723633 C30.2342535 21.4227173 25.81598372 21.44673527 21.39750195 21.47520828 C17.99940598 21.49384829 14.60138412 21.49904102 11.20324135 21.5005722 C9.574571 21.50359694 7.94590189 21.51161945 6.31728172 21.52475739 C4.03599076 21.54184438 1.75545039 21.53993135 -0.52587891 21.53344727 C-2.47207878 21.53891571 -2.47207878 21.53891571 -4.45759583 21.54449463 C-8.09011799 21.15153906 -9.9577566 20.35452763 -12.85473633 18.17700195 C-15.38080758 14.52989316 -14.98641275 11.53485034 -14.40161133 7.30200195 C-13.63398113 4.31921031 -12.34550496 2.93519157 -9.85473633 1.17700195 C-6.38894722 0.02173892 -3.65729259 0.02870348 0 0 Z " fill="white" transform="translate(138.854736328125,259.822998046875)"/>
</svg>
